<svg xmlns="http://www.w3.org/2000/svg" width="1200" height="780" viewBox="0 0 1200 780">
<style>
  .title { font: 700 30px Georgia, 'Times New Roman', serif; fill: #111827; }
  .subtitle { font: 500 14px ui-sans-serif, system-ui, -apple-system, sans-serif; fill: #4b5563; }
  .axis { stroke: #9ca3af; stroke-width: 1.5; }
  .grid { stroke: #ddd6c8; stroke-width: 1; }
  .label { font: 12px ui-sans-serif, system-ui, -apple-system, sans-serif; fill: #374151; }
  .small { font: 11px ui-sans-serif, system-ui, -apple-system, sans-serif; fill: #4b5563; }
  .legend { font: 12px ui-sans-serif, system-ui, -apple-system, sans-serif; fill: #111827; }
</style>
<rect width="100%" height="100%" fill="#f3f1ea"/>
<rect x="24" y="24" width="1152" height="732" rx="26" fill="#fffdf8" stroke="#e7e1d6"/>
<text x="110" y="38" class="title">Run 4 Operational vs Quality Quadrants</text>
<line x1="110" y1="690" x2="1160" y2="690" class="axis"/><line x1="110" y1="70" x2="110" y2="690" class="axis"/><line x1="110.0" y1="70" x2="110.0" y2="690" class="grid"/><text x="110.0" y="714" text-anchor="middle" class="label">7</text><line x1="410.0" y1="70" x2="410.0" y2="690" class="grid"/><text x="410.0" y="714" text-anchor="middle" class="label">8</text><line x1="710.0" y1="70" x2="710.0" y2="690" class="grid"/><text x="710.0" y="714" text-anchor="middle" class="label">9</text><line x1="1010.0" y1="70" x2="1010.0" y2="690" class="grid"/><text x="1010.0" y="714" text-anchor="middle" class="label">10</text><line x1="110" y1="690.0" x2="1160" y2="690.0" class="grid"/><text x="98" y="694.0" text-anchor="end" class="label">4</text><line x1="110" y1="594.6" x2="1160" y2="594.6" class="grid"/><text x="98" y="598.6" text-anchor="end" class="label">5</text><line x1="110" y1="499.2" x2="1160" y2="499.2" class="grid"/><text x="98" y="503.2" text-anchor="end" class="label">6</text><line x1="110" y1="403.8" x2="1160" y2="403.8" class="grid"/><text x="98" y="407.8" text-anchor="end" class="label">7</text><line x1="110" y1="308.5" x2="1160" y2="308.5" class="grid"/><text x="98" y="312.5" text-anchor="end" class="label">8</text><line x1="110" y1="213.1" x2="1160" y2="213.1" class="grid"/><text x="98" y="217.1" text-anchor="end" class="label">9</text><line x1="110" y1="117.7" x2="1160" y2="117.7" class="grid"/><text x="98" y="121.7" text-anchor="end" class="label">10</text><text x="635.0" y="752" text-anchor="middle" class="legend">Operational Score</text><text x="26" y="380.0" text-anchor="middle" transform="rotate(-90 26 380.0)" class="legend">Accuracy Score</text><line x1="710.0" y1="70" x2="710.0" y2="690" stroke="#9ca3af" stroke-dasharray="5 4"/><line x1="110" y1="260.7692307692308" x2="1160" y2="260.7692307692308" stroke="#9ca3af" stroke-dasharray="5 4"/><text x="540.0" y="94" class="small">High quality, lower ops</text><text x="730.0" y="94" class="small">High quality, strong ops</text><text x="560.0" y="674" class="small">Weak quality, lower ops</text><text x="730.0" y="674" class="small">Weak quality, strong ops</text><polygon points="860.0,203.1 870.0,213.1 860.0,223.1 850.0,213.1" fill="#155e75" fill-opacity="0.78" stroke="#111827" stroke-width="1.2"><title>multi-file-repair | Qwen2.5-7B</title></polygon><text x="872.0" y="211.1" class="small">Qwen2.5-7B</text><polygon points="635.0,107.7 645.0,117.7 635.0,127.7 625.0,117.7" fill="#155e75" fill-opacity="0.78" stroke="#111827" stroke-width="1.2"><title>multi-file-repair | Qwen2.5-Coder-32B</title></polygon><text x="647.0" y="115.7" class="small">Qwen2.5-Coder-32B</text><polygon points="335.0,203.1 345.0,213.1 335.0,223.1 325.0,213.1" fill="#155e75" fill-opacity="0.78" stroke="#111827" stroke-width="1.2"><title>multi-file-repair | Qwen3.5-27B</title></polygon><text x="347.0" y="211.1" class="small">Qwen3.5-27B</text><polygon points="635.0,107.7 645.0,117.7 635.0,127.7 625.0,117.7" fill="#155e75" fill-opacity="0.78" stroke="#111827" stroke-width="1.2"><title>multi-file-repair | Qwen2.5-32B</title></polygon><text x="647.0" y="115.7" class="small">Qwen2.5-32B</text><circle cx="710.0" cy="213.1" r="9" fill="#155e75" fill-opacity="0.78" stroke="#111827" stroke-width="1.2"><title>multi-file-repair | gpt-5.2-codex</title></circle><text x="722.0" y="211.1" class="small">gpt-5.2-codex</text><circle cx="485.0" cy="117.7" r="9" fill="#155e75" fill-opacity="0.78" stroke="#111827" stroke-width="1.2"><title>multi-file-repair | gpt-5.4</title></circle><text x="497.0" y="115.7" class="small">gpt-5.4</text><polygon points="860.0,107.7 870.0,117.7 860.0,127.7 850.0,117.7" fill="#1d4ed8" fill-opacity="0.78" stroke="#111827" stroke-width="1.2"><title>benchmark-integrity-helper | Qwen2.5-7B</title></polygon><text x="872.0" y="115.7" class="small">Qwen2.5-7B</text><polygon points="860.0,107.7 870.0,117.7 860.0,127.7 850.0,117.7" fill="#1d4ed8" fill-opacity="0.78" stroke="#111827" stroke-width="1.2"><title>benchmark-integrity-helper | Qwen2.5-Coder-32B</title></polygon><text x="872.0" y="115.7" class="small">Qwen2.5-Coder-32B</text><polygon points="335.0,107.7 345.0,117.7 335.0,127.7 325.0,117.7" fill="#1d4ed8" fill-opacity="0.78" stroke="#111827" stroke-width="1.2"><title>benchmark-integrity-helper | Qwen3.5-27B</title></polygon><text x="347.0" y="115.7" class="small">Qwen3.5-27B</text><polygon points="860.0,107.7 870.0,117.7 860.0,127.7 850.0,117.7" fill="#1d4ed8" fill-opacity="0.78" stroke="#111827" stroke-width="1.2"><title>benchmark-integrity-helper | Qwen2.5-32B</title></polygon><text x="872.0" y="115.7" class="small">Qwen2.5-32B</text><circle cx="710.0" cy="117.7" r="9" fill="#1d4ed8" fill-opacity="0.78" stroke="#111827" stroke-width="1.2"><title>benchmark-integrity-helper | gpt-5.2-codex</title></circle><text x="722.0" y="115.7" class="small">gpt-5.2-codex</text><circle cx="485.0" cy="117.7" r="9" fill="#1d4ed8" fill-opacity="0.78" stroke="#111827" stroke-width="1.2"><title>benchmark-integrity-helper | gpt-5.4</title></circle><text x="497.0" y="115.7" class="small">gpt-5.4</text><polygon points="860.0,584.6 870.0,594.6 860.0,604.6 850.0,594.6" fill="#b91c1c" fill-opacity="0.78" stroke="#111827" stroke-width="1.2"><title>partial-failure-debugging | Qwen2.5-7B</title></polygon><text x="872.0" y="592.6" class="small">Qwen2.5-7B</text><polygon points="860.0,584.6 870.0,594.6 860.0,604.6 850.0,594.6" fill="#b91c1c" fill-opacity="0.78" stroke="#111827" stroke-width="1.2"><title>partial-failure-debugging | Qwen2.5-Coder-32B</title></polygon><text x="872.0" y="592.6" class="small">Qwen2.5-Coder-32B</text><polygon points="635.0,584.6 645.0,594.6 635.0,604.6 625.0,594.6" fill="#b91c1c" fill-opacity="0.78" stroke="#111827" stroke-width="1.2"><title>partial-failure-debugging | Qwen3.5-27B</title></polygon><text x="647.0" y="592.6" class="small">Qwen3.5-27B</text><polygon points="860.0,441.5 870.0,451.5 860.0,461.5 850.0,451.5" fill="#b91c1c" fill-opacity="0.78" stroke="#111827" stroke-width="1.2"><title>partial-failure-debugging | Qwen2.5-32B</title></polygon><text x="872.0" y="449.5" class="small">Qwen2.5-32B</text><circle cx="1010.0" cy="117.7" r="9" fill="#b91c1c" fill-opacity="0.78" stroke="#111827" stroke-width="1.2"><title>partial-failure-debugging | gpt-5.2-codex</title></circle><text x="1022.0" y="115.7" class="small">gpt-5.2-codex</text><circle cx="485.0" cy="117.7" r="9" fill="#b91c1c" fill-opacity="0.78" stroke="#111827" stroke-width="1.2"><title>partial-failure-debugging | gpt-5.4</title></circle><text x="497.0" y="115.7" class="small">gpt-5.4</text><polygon points="860.0,107.7 870.0,117.7 860.0,127.7 850.0,117.7" fill="#7c3aed" fill-opacity="0.78" stroke="#111827" stroke-width="1.2"><title>escalation-boundary-decision | Qwen2.5-7B</title></polygon><text x="872.0" y="115.7" class="small">Qwen2.5-7B</text><polygon points="635.0,107.7 645.0,117.7 635.0,127.7 625.0,117.7" fill="#7c3aed" fill-opacity="0.78" stroke="#111827" stroke-width="1.2"><title>escalation-boundary-decision | Qwen2.5-Coder-32B</title></polygon><text x="647.0" y="115.7" class="small">Qwen2.5-Coder-32B</text><polygon points="335.0,680.0 345.0,690.0 335.0,700.0 325.0,690.0" fill="#7c3aed" fill-opacity="0.78" stroke="#111827" stroke-width="1.2"><title>escalation-boundary-decision | Qwen3.5-27B</title></polygon><text x="347.0" y="688.0" class="small">Qwen3.5-27B</text><polygon points="335.0,107.7 345.0,117.7 335.0,127.7 325.0,117.7" fill="#7c3aed" fill-opacity="0.78" stroke="#111827" stroke-width="1.2"><title>escalation-boundary-decision | Qwen2.5-32B</title></polygon><text x="347.0" y="115.7" class="small">Qwen2.5-32B</text><circle cx="710.0" cy="499.2" r="9" fill="#7c3aed" fill-opacity="0.78" stroke="#111827" stroke-width="1.2"><title>escalation-boundary-decision | gpt-5.2-codex</title></circle><text x="722.0" y="497.2" class="small">gpt-5.2-codex</text><circle cx="485.0" cy="117.7" r="9" fill="#7c3aed" fill-opacity="0.78" stroke="#111827" stroke-width="1.2"><title>escalation-boundary-decision | gpt-5.4</title></circle><text x="497.0" y="115.7" class="small">gpt-5.4</text><text x="915" y="58" class="legend">Shape / color</text><polygon points="923,70 931,78 923,86 915,78" fill="#9ca3af" stroke="#111827"/><text x="941" y="82" class="label">local</text><circle cx="923" cy="104" r="8" fill="#9ca3af" stroke="#111827"/><text x="941" y="108" class="label">frontier</text><rect x="915" y="128" width="14" height="14" fill="#155e75" rx="3"/><text x="937" y="140" class="label">engineering</text><rect x="915" y="150" width="14" height="14" fill="#1d4ed8" rx="3"/><text x="937" y="162" class="label">tooling</text><rect x="915" y="172" width="14" height="14" fill="#b91c1c" rx="3"/><text x="937" y="184" class="label">debugging</text><rect x="915" y="194" width="14" height="14" fill="#7c3aed" rx="3"/><text x="937" y="206" class="label">architecture</text>
</svg>
