<svg xmlns="http://www.w3.org/2000/svg" width="1200" height="780" viewBox="0 0 1200 780">
<style>
  .title { font: 700 30px Georgia, 'Times New Roman', serif; fill: #111827; }
  .subtitle { font: 500 14px ui-sans-serif, system-ui, -apple-system, sans-serif; fill: #4b5563; }
  .axis { stroke: #9ca3af; stroke-width: 1.5; }
  .grid { stroke: #ddd6c8; stroke-width: 1; }
  .label { font: 12px ui-sans-serif, system-ui, -apple-system, sans-serif; fill: #374151; }
  .small { font: 11px ui-sans-serif, system-ui, -apple-system, sans-serif; fill: #4b5563; }
  .legend { font: 12px ui-sans-serif, system-ui, -apple-system, sans-serif; fill: #111827; }
</style>
<rect width="100%" height="100%" fill="#f3f1ea"/>
<rect x="24" y="24" width="1152" height="732" rx="26" fill="#fffdf8" stroke="#e7e1d6"/>
<text x="110" y="38" class="title">Run 4 Task by Model Heatmap</text>
<text x="110" y="82" class="subtitle">Accuracy heatmap with finish-state badges</text><text x="313.0" y="132" text-anchor="middle" class="label">Qwen2.5-7B</text><text x="459.0" y="132" text-anchor="middle" class="label">Qwen2.5-Coder-32B</text><text x="605.0" y="132" text-anchor="middle" class="label">Qwen3.5-27B</text><text x="751.0" y="132" text-anchor="middle" class="label">Qwen2.5-32B</text><text x="897.0" y="132" text-anchor="middle" class="label">gpt-5.2-codex</text><text x="1043.0" y="132" text-anchor="middle" class="label">gpt-5.4</text><text x="222" y="209.0" text-anchor="end" class="label">multi-file-repair</text><rect x="240" y="150" width="138" height="102" rx="12" fill="#25827b" stroke="#d1d5db"/><text x="258" y="185" class="legend" fill="#111827">9.0</text><text x="258" y="208" class="small">lat 5.4s</text><text x="258" y="228" class="small">ops 9.5</text><rect x="314" y="166" width="52" height="20" rx="10" fill="#dcfce7" stroke="#9ca3af"/><text x="340" y="180" text-anchor="middle" class="small">stop</text><rect x="386" y="150" width="138" height="102" rx="12" fill="#0f766e" stroke="#d1d5db"/><text x="404" y="185" class="legend" fill="#111827">10.0</text><text x="404" y="208" class="small">lat 32.6s</text><text x="404" y="228" class="small">ops 8.8</text><rect x="460" y="166" width="52" height="20" rx="10" fill="#dcfce7" stroke="#9ca3af"/><text x="486" y="180" text-anchor="middle" class="small">stop</text><rect x="532" y="150" width="138" height="102" rx="12" fill="#25827b" stroke="#d1d5db"/><text x="550" y="185" class="legend" fill="#111827">9.0</text><text x="550" y="208" class="small">lat 32.9s</text><text x="550" y="228" class="small">ops 7.8</text><rect x="606" y="166" width="52" height="20" rx="10" fill="#fef3c7" stroke="#9ca3af"/><text x="632" y="180" text-anchor="middle" class="small">length</text><rect x="678" y="150" width="138" height="102" rx="12" fill="#0f766e" stroke="#d1d5db"/><text x="696" y="185" class="legend" fill="#111827">10.0</text><text x="696" y="208" class="small">lat 28.1s</text><text x="696" y="228" class="small">ops 8.8</text><rect x="752" y="166" width="52" height="20" rx="10" fill="#dcfce7" stroke="#9ca3af"/><text x="778" y="180" text-anchor="middle" class="small">stop</text><rect x="824" y="150" width="138" height="102" rx="12" fill="#25827b" stroke="#d1d5db"/><text x="842" y="185" class="legend" fill="#111827">9.0</text><text x="842" y="208" class="small">lat 8.5s</text><text x="842" y="228" class="small">ops 9.0</text><rect x="898" y="166" width="52" height="20" rx="10" fill="#fef3c7" stroke="#9ca3af"/><text x="924" y="180" text-anchor="middle" class="small">incomplete</text><rect x="970" y="150" width="138" height="102" rx="12" fill="#0f766e" stroke="#d1d5db"/><text x="988" y="185" class="legend" fill="#111827">10.0</text><text x="988" y="208" class="small">lat 32.8s</text><text x="988" y="228" class="small">ops 8.2</text><rect x="1044" y="166" width="52" height="20" rx="10" fill="#dcfce7" stroke="#9ca3af"/><text x="1070" y="180" text-anchor="middle" class="small">stop</text><text x="222" y="319.0" text-anchor="end" class="label">benchmark-integrity-helper</text><rect x="240" y="260" width="138" height="102" rx="12" fill="#0f766e" stroke="#d1d5db"/><text x="258" y="295" class="legend" fill="#111827">10.0</text><text x="258" y="318" class="small">lat 5.3s</text><text x="258" y="338" class="small">ops 9.5</text><rect x="314" y="276" width="52" height="20" rx="10" fill="#dcfce7" stroke="#9ca3af"/><text x="340" y="290" text-anchor="middle" class="small">stop</text><rect x="386" y="260" width="138" height="102" rx="12" fill="#0f766e" stroke="#d1d5db"/><text x="404" y="295" class="legend" fill="#111827">10.0</text><text x="404" y="318" class="small">lat 18.4s</text><text x="404" y="338" class="small">ops 9.5</text><rect x="460" y="276" width="52" height="20" rx="10" fill="#dcfce7" stroke="#9ca3af"/><text x="486" y="290" text-anchor="middle" class="small">stop</text><rect x="532" y="260" width="138" height="102" rx="12" fill="#0f766e" stroke="#d1d5db"/><text x="550" y="295" class="legend" fill="#111827">10.0</text><text x="550" y="318" class="small">lat 32.5s</text><text x="550" y="338" class="small">ops 7.8</text><rect x="606" y="276" width="52" height="20" rx="10" fill="#fef3c7" stroke="#9ca3af"/><text x="632" y="290" text-anchor="middle" class="small">length</text><rect x="678" y="260" width="138" height="102" rx="12" fill="#0f766e" stroke="#d1d5db"/><text x="696" y="295" class="legend" fill="#111827">10.0</text><text x="696" y="318" class="small">lat 20.0s</text><text x="696" y="338" class="small">ops 9.5</text><rect x="752" y="276" width="52" height="20" rx="10" fill="#dcfce7" stroke="#9ca3af"/><text x="778" y="290" text-anchor="middle" class="small">stop</text><rect x="824" y="260" width="138" height="102" rx="12" fill="#0f766e" stroke="#d1d5db"/><text x="842" y="295" class="legend" fill="#111827">10.0</text><text x="842" y="318" class="small">lat 9.2s</text><text x="842" y="338" class="small">ops 9.0</text><rect x="898" y="276" width="52" height="20" rx="10" fill="#fef3c7" stroke="#9ca3af"/><text x="924" y="290" text-anchor="middle" class="small">incomplete</text><rect x="970" y="260" width="138" height="102" rx="12" fill="#0f766e" stroke="#d1d5db"/><text x="988" y="295" class="legend" fill="#111827">10.0</text><text x="988" y="318" class="small">lat 30.9s</text><text x="988" y="338" class="small">ops 8.2</text><rect x="1044" y="276" width="52" height="20" rx="10" fill="#dcfce7" stroke="#9ca3af"/><text x="1070" y="290" text-anchor="middle" class="small">stop</text><text x="222" y="429.0" text-anchor="end" class="label">partial-failure-debugging</text><rect x="240" y="370" width="138" height="102" rx="12" fill="#81b5b2" stroke="#d1d5db"/><text x="258" y="405" class="legend" fill="#111827">5.0</text><text x="258" y="428" class="small">lat 5.5s</text><text x="258" y="448" class="small">ops 9.5</text><rect x="314" y="386" width="52" height="20" rx="10" fill="#dcfce7" stroke="#9ca3af"/><text x="340" y="400" text-anchor="middle" class="small">stop</text><rect x="386" y="370" width="138" height="102" rx="12" fill="#81b5b2" stroke="#d1d5db"/><text x="404" y="405" class="legend" fill="#111827">5.0</text><text x="404" y="428" class="small">lat 14.6s</text><text x="404" y="448" class="small">ops 9.5</text><rect x="460" y="386" width="52" height="20" rx="10" fill="#dcfce7" stroke="#9ca3af"/><text x="486" y="400" text-anchor="middle" class="small">stop</text><rect x="532" y="370" width="138" height="102" rx="12" fill="#81b5b2" stroke="#d1d5db"/><text x="550" y="405" class="legend" fill="#111827">5.0</text><text x="550" y="428" class="small">lat 28.3s</text><text x="550" y="448" class="small">ops 8.8</text><rect x="606" y="386" width="52" height="20" rx="10" fill="#dcfce7" stroke="#9ca3af"/><text x="632" y="400" text-anchor="middle" class="small">stop</text><rect x="678" y="370" width="138" height="102" rx="12" fill="#5ea29d" stroke="#d1d5db"/><text x="696" y="405" class="legend" fill="#111827">6.5</text><text x="696" y="428" class="small">lat 15.1s</text><text x="696" y="448" class="small">ops 9.5</text><rect x="752" y="386" width="52" height="20" rx="10" fill="#dcfce7" stroke="#9ca3af"/><text x="778" y="400" text-anchor="middle" class="small">stop</text><rect x="824" y="370" width="138" height="102" rx="12" fill="#0f766e" stroke="#d1d5db"/><text x="842" y="405" class="legend" fill="#111827">10.0</text><text x="842" y="428" class="small">lat 9.6s</text><text x="842" y="448" class="small">ops 10.0</text><rect x="898" y="386" width="52" height="20" rx="10" fill="#dcfce7" stroke="#9ca3af"/><text x="924" y="400" text-anchor="middle" class="small">completed</text><rect x="970" y="370" width="138" height="102" rx="12" fill="#0f766e" stroke="#d1d5db"/><text x="988" y="405" class="legend" fill="#111827">10.0</text><text x="988" y="428" class="small">lat 30.2s</text><text x="988" y="448" class="small">ops 8.2</text><rect x="1044" y="386" width="52" height="20" rx="10" fill="#dcfce7" stroke="#9ca3af"/><text x="1070" y="400" text-anchor="middle" class="small">stop</text><text x="222" y="539.0" text-anchor="end" class="label">escalation-boundary-decision</text><rect x="240" y="480" width="138" height="102" rx="12" fill="#0f766e" stroke="#d1d5db"/><text x="258" y="515" class="legend" fill="#111827">10.0</text><text x="258" y="538" class="small">lat 7.9s</text><text x="258" y="558" class="small">ops 9.5</text><rect x="314" y="496" width="52" height="20" rx="10" fill="#dcfce7" stroke="#9ca3af"/><text x="340" y="510" text-anchor="middle" class="small">stop</text><rect x="386" y="480" width="138" height="102" rx="12" fill="#0f766e" stroke="#d1d5db"/><text x="404" y="515" class="legend" fill="#111827">10.0</text><text x="404" y="538" class="small">lat 40.3s</text><text x="404" y="558" class="small">ops 8.8</text><rect x="460" y="496" width="52" height="20" rx="10" fill="#dcfce7" stroke="#9ca3af"/><text x="486" y="510" text-anchor="middle" class="small">stop</text><rect x="532" y="480" width="138" height="102" rx="12" fill="#97c1bf" stroke="#d1d5db"/><text x="550" y="515" class="legend" fill="#111827">4.0</text><text x="550" y="538" class="small">lat 33.6s</text><text x="550" y="558" class="small">ops 7.8</text><rect x="606" y="496" width="52" height="20" rx="10" fill="#fef3c7" stroke="#9ca3af"/><text x="632" y="510" text-anchor="middle" class="small">length</text><rect x="678" y="480" width="138" height="102" rx="12" fill="#0f766e" stroke="#d1d5db"/><text x="696" y="515" class="legend" fill="#111827">10.0</text><text x="696" y="538" class="small">lat 43.4s</text><text x="696" y="558" class="small">ops 7.8</text><rect x="752" y="496" width="52" height="20" rx="10" fill="#fef3c7" stroke="#9ca3af"/><text x="778" y="510" text-anchor="middle" class="small">length</text><rect x="824" y="480" width="138" height="102" rx="12" fill="#6aa8a4" stroke="#d1d5db"/><text x="842" y="515" class="legend" fill="#111827">6.0</text><text x="842" y="538" class="small">lat 8.2s</text><text x="842" y="558" class="small">ops 9.0</text><rect x="898" y="496" width="52" height="20" rx="10" fill="#fef3c7" stroke="#9ca3af"/><text x="924" y="510" text-anchor="middle" class="small">incomplete</text><rect x="970" y="480" width="138" height="102" rx="12" fill="#0f766e" stroke="#d1d5db"/><text x="988" y="515" class="legend" fill="#111827">10.0</text><text x="988" y="538" class="small">lat 43.1s</text><text x="988" y="558" class="small">ops 8.2</text><rect x="1044" y="496" width="52" height="20" rx="10" fill="#dcfce7" stroke="#9ca3af"/><text x="1070" y="510" text-anchor="middle" class="small">stop</text><text x="240" y="618" class="small">Darker teal means higher accuracy. Amber badges indicate length/incomplete finishes.</text>
</svg>
