<svg xmlns="http://www.w3.org/2000/svg" width="1200" height="780" viewBox="0 0 1200 780">
<style>
  .title { font: 700 30px Georgia, 'Times New Roman', serif; fill: #111827; }
  .subtitle { font: 500 14px ui-sans-serif, system-ui, -apple-system, sans-serif; fill: #4b5563; }
  .axis { stroke: #9ca3af; stroke-width: 1.5; }
  .grid { stroke: #ddd6c8; stroke-width: 1; }
  .label { font: 12px ui-sans-serif, system-ui, -apple-system, sans-serif; fill: #374151; }
  .small { font: 11px ui-sans-serif, system-ui, -apple-system, sans-serif; fill: #4b5563; }
  .legend { font: 12px ui-sans-serif, system-ui, -apple-system, sans-serif; fill: #111827; }
</style>
<rect width="100%" height="100%" fill="#f3f1ea"/>
<rect x="24" y="24" width="1152" height="732" rx="26" fill="#fffdf8" stroke="#e7e1d6"/>
<text x="110" y="38" class="title">Run 4 Frontier vs Local Gaps by Task Class</text>
<line x1="570" y1="100" x2="570" y2="640" class="axis"/><text x="450" y="78" class="legend">Local better</text><text x="602" y="78" class="legend">Frontier better</text><text x="170" y="138" class="legend">architecture</text><text x="170" y="160" class="small">route: fast_local_default</text><rect x="570.0" y="176" width="0.0" height="20" fill="#2563eb" rx="8"/><text x="580.0" y="191" text-anchor="start" class="small">quality +0.00</text><rect x="463.8" y="204" width="106.2" height="20" fill="#d97706" rx="8"/><text x="453.8" y="219" text-anchor="end" class="small">operational -1.25</text><text x="490" y="236" class="small">Qwen2.5-7B vs gpt-5.4</text><text x="170" y="268" class="legend">debugging</text><text x="170" y="290" class="small">route: frontier</text><rect x="570.0" y="306" width="297.5" height="20" fill="#2563eb" rx="8"/><text x="877.5" y="321" text-anchor="start" class="small">quality +3.50</text><rect x="570.0" y="334" width="42.5" height="20" fill="#d97706" rx="8"/><text x="622.5" y="349" text-anchor="start" class="small">operational +0.50</text><text x="490" y="366" class="small">Qwen2.5-32B vs gpt-5.2-codex</text><text x="170" y="398" class="legend">engineering</text><text x="170" y="420" class="small">route: fast_local_default</text><rect x="570.0" y="436" width="0.0" height="20" fill="#2563eb" rx="8"/><text x="580.0" y="451" text-anchor="start" class="small">quality +0.00</text><rect x="527.5" y="464" width="42.5" height="20" fill="#d97706" rx="8"/><text x="517.5" y="479" text-anchor="end" class="small">operational -0.50</text><text x="490" y="496" class="small">Qwen2.5-Coder-32B vs gpt-5.4</text><text x="170" y="528" class="legend">tooling</text><text x="170" y="550" class="small">route: fast_local_default</text><rect x="570.0" y="566" width="0.0" height="20" fill="#2563eb" rx="8"/><text x="580.0" y="581" text-anchor="start" class="small">quality +0.00</text><rect x="527.5" y="594" width="42.5" height="20" fill="#d97706" rx="8"/><text x="517.5" y="609" text-anchor="end" class="small">operational -0.50</text><text x="490" y="626" class="small">Qwen2.5-7B vs gpt-5.2-codex</text><rect x="920" y="70" width="14" height="14" fill="#2563eb" rx="3"/><text x="940" y="82" class="label">quality gap</text><rect x="920" y="94" width="14" height="14" fill="#d97706" rx="3"/><text x="940" y="106" class="label">operational gap</text>
</svg>
