<svg xmlns="http://www.w3.org/2000/svg" width="1200" height="780" viewBox="0 0 1200 780">
<style>
  .title { font: 700 30px Georgia, 'Times New Roman', serif; fill: #111827; }
  .subtitle { font: 500 14px ui-sans-serif, system-ui, -apple-system, sans-serif; fill: #4b5563; }
  .axis { stroke: #9ca3af; stroke-width: 1.5; }
  .grid { stroke: #ddd6c8; stroke-width: 1; }
  .label { font: 12px ui-sans-serif, system-ui, -apple-system, sans-serif; fill: #374151; }
  .small { font: 11px ui-sans-serif, system-ui, -apple-system, sans-serif; fill: #4b5563; }
  .legend { font: 12px ui-sans-serif, system-ui, -apple-system, sans-serif; fill: #111827; }
</style>
<rect width="100%" height="100%" fill="#f3f1ea"/>
<rect x="24" y="24" width="1152" height="732" rx="26" fill="#fffdf8" stroke="#e7e1d6"/>
<text x="110" y="38" class="title">Run 4 Task by Model Heatmap</text>
<text x="110" y="82" class="subtitle">Accuracy heatmap with finish-state badges</text><text x="315.0" y="132" text-anchor="middle" class="label">Qwen2.5-7B</text><text x="465.0" y="132" text-anchor="middle" class="label">Qwen2.5-Coder-32B</text><text x="615.0" y="132" text-anchor="middle" class="label">Qwen3.5-27B</text><text x="765.0" y="132" text-anchor="middle" class="label">Qwen2.5-32B</text><text x="915.0" y="132" text-anchor="middle" class="label">gpt-5.2-codex</text><text x="1065.0" y="132" text-anchor="middle" class="label">gpt-5.4</text><text x="222" y="209.0" text-anchor="end" class="label">multi-file-repair</text><rect x="240" y="150" width="142" height="102" rx="12" fill="#25827b" stroke="#d1d5db"/><text x="258" y="185" class="legend" fill="#111827">9.0</text><text x="258" y="208" class="small">lat 5.4s</text><text x="258" y="228" class="small">ops 9.5</text><rect x="318" y="166" width="52" height="20" rx="10" fill="#dcfce7" stroke="#9ca3af"/><text x="344" y="180" text-anchor="middle" class="small">stop</text><rect x="390" y="150" width="142" height="102" rx="12" fill="#0f766e" stroke="#d1d5db"/><text x="408" y="185" class="legend" fill="#111827">10.0</text><text x="408" y="208" class="small">lat 32.6s</text><text x="408" y="228" class="small">ops 8.8</text><rect x="468" y="166" width="52" height="20" rx="10" fill="#dcfce7" stroke="#9ca3af"/><text x="494" y="180" text-anchor="middle" class="small">stop</text><rect x="540" y="150" width="142" height="102" rx="12" fill="#25827b" stroke="#d1d5db"/><text x="558" y="185" class="legend" fill="#111827">9.0</text><text x="558" y="208" class="small">lat 32.9s</text><text x="558" y="228" class="small">ops 7.8</text><rect x="618" y="166" width="52" height="20" rx="10" fill="#fef3c7" stroke="#9ca3af"/><text x="644" y="180" text-anchor="middle" class="small">length</text><rect x="690" y="150" width="142" height="102" rx="12" fill="#0f766e" stroke="#d1d5db"/><text x="708" y="185" class="legend" fill="#111827">10.0</text><text x="708" y="208" class="small">lat 28.1s</text><text x="708" y="228" class="small">ops 8.8</text><rect x="768" y="166" width="52" height="20" rx="10" fill="#dcfce7" stroke="#9ca3af"/><text x="794" y="180" text-anchor="middle" class="small">stop</text><rect x="840" y="150" width="142" height="102" rx="12" fill="#25827b" stroke="#d1d5db"/><text x="858" y="185" class="legend" fill="#111827">9.0</text><text x="858" y="208" class="small">lat 8.5s</text><text x="858" y="228" class="small">ops 9.0</text><rect x="918" y="166" width="52" height="20" rx="10" fill="#fef3c7" stroke="#9ca3af"/><text x="944" y="180" text-anchor="middle" class="small">incomplete</text><rect x="990" y="150" width="142" height="102" rx="12" fill="#0f766e" stroke="#d1d5db"/><text x="1008" y="185" class="legend" fill="#111827">10.0</text><text x="1008" y="208" class="small">lat 32.8s</text><text x="1008" y="228" class="small">ops 8.2</text><rect x="1068" y="166" width="52" height="20" rx="10" fill="#dcfce7" stroke="#9ca3af"/><text x="1094" y="180" text-anchor="middle" class="small">stop</text><text x="222" y="319.0" text-anchor="end" class="label">benchmark-integrity-helper</text><rect x="240" y="260" width="142" height="102" rx="12" fill="#0f766e" stroke="#d1d5db"/><text x="258" y="295" class="legend" fill="#111827">10.0</text><text x="258" y="318" class="small">lat 5.3s</text><text x="258" y="338" class="small">ops 9.5</text><rect x="318" y="276" width="52" height="20" rx="10" fill="#dcfce7" stroke="#9ca3af"/><text x="344" y="290" text-anchor="middle" class="small">stop</text><rect x="390" y="260" width="142" height="102" rx="12" fill="#0f766e" stroke="#d1d5db"/><text x="408" y="295" class="legend" fill="#111827">10.0</text><text x="408" y="318" class="small">lat 18.4s</text><text x="408" y="338" class="small">ops 9.5</text><rect x="468" y="276" width="52" height="20" rx="10" fill="#dcfce7" stroke="#9ca3af"/><text x="494" y="290" text-anchor="middle" class="small">stop</text><rect x="540" y="260" width="142" height="102" rx="12" fill="#0f766e" stroke="#d1d5db"/><text x="558" y="295" class="legend" fill="#111827">10.0</text><text x="558" y="318" class="small">lat 32.5s</text><text x="558" y="338" class="small">ops 7.8</text><rect x="618" y="276" width="52" height="20" rx="10" fill="#fef3c7" stroke="#9ca3af"/><text x="644" y="290" text-anchor="middle" class="small">length</text><rect x="690" y="260" width="142" height="102" rx="12" fill="#0f766e" stroke="#d1d5db"/><text x="708" y="295" class="legend" fill="#111827">10.0</text><text x="708" y="318" class="small">lat 20.0s</text><text x="708" y="338" class="small">ops 9.5</text><rect x="768" y="276" width="52" height="20" rx="10" fill="#dcfce7" stroke="#9ca3af"/><text x="794" y="290" text-anchor="middle" class="small">stop</text><rect x="840" y="260" width="142" height="102" rx="12" fill="#0f766e" stroke="#d1d5db"/><text x="858" y="295" class="legend" fill="#111827">10.0</text><text x="858" y="318" class="small">lat 9.2s</text><text x="858" y="338" class="small">ops 9.0</text><rect x="918" y="276" width="52" height="20" rx="10" fill="#fef3c7" stroke="#9ca3af"/><text x="944" y="290" text-anchor="middle" class="small">incomplete</text><rect x="990" y="260" width="142" height="102" rx="12" fill="#0f766e" stroke="#d1d5db"/><text x="1008" y="295" class="legend" fill="#111827">10.0</text><text x="1008" y="318" class="small">lat 30.9s</text><text x="1008" y="338" class="small">ops 8.2</text><rect x="1068" y="276" width="52" height="20" rx="10" fill="#dcfce7" stroke="#9ca3af"/><text x="1094" y="290" text-anchor="middle" class="small">stop</text><text x="222" y="429.0" text-anchor="end" class="label">partial-failure-debugging</text><rect x="240" y="370" width="142" height="102" rx="12" fill="#81b5b2" stroke="#d1d5db"/><text x="258" y="405" class="legend" fill="#111827">5.0</text><text x="258" y="428" class="small">lat 5.5s</text><text x="258" y="448" class="small">ops 9.5</text><rect x="318" y="386" width="52" height="20" rx="10" fill="#dcfce7" stroke="#9ca3af"/><text x="344" y="400" text-anchor="middle" class="small">stop</text><rect x="390" y="370" width="142" height="102" rx="12" fill="#81b5b2" stroke="#d1d5db"/><text x="408" y="405" class="legend" fill="#111827">5.0</text><text x="408" y="428" class="small">lat 14.6s</text><text x="408" y="448" class="small">ops 9.5</text><rect x="468" y="386" width="52" height="20" rx="10" fill="#dcfce7" stroke="#9ca3af"/><text x="494" y="400" text-anchor="middle" class="small">stop</text><rect x="540" y="370" width="142" height="102" rx="12" fill="#81b5b2" stroke="#d1d5db"/><text x="558" y="405" class="legend" fill="#111827">5.0</text><text x="558" y="428" class="small">lat 28.3s</text><text x="558" y="448" class="small">ops 8.8</text><rect x="618" y="386" width="52" height="20" rx="10" fill="#dcfce7" stroke="#9ca3af"/><text x="644" y="400" text-anchor="middle" class="small">stop</text><rect x="690" y="370" width="142" height="102" rx="12" fill="#5ea29d" stroke="#d1d5db"/><text x="708" y="405" class="legend" fill="#111827">6.5</text><text x="708" y="428" class="small">lat 15.1s</text><text x="708" y="448" class="small">ops 9.5</text><rect x="768" y="386" width="52" height="20" rx="10" fill="#dcfce7" stroke="#9ca3af"/><text x="794" y="400" text-anchor="middle" class="small">stop</text><rect x="840" y="370" width="142" height="102" rx="12" fill="#0f766e" stroke="#d1d5db"/><text x="858" y="405" class="legend" fill="#111827">10.0</text><text x="858" y="428" class="small">lat 9.6s</text><text x="858" y="448" class="small">ops 10.0</text><rect x="918" y="386" width="52" height="20" rx="10" fill="#dcfce7" stroke="#9ca3af"/><text x="944" y="400" text-anchor="middle" class="small">completed</text><rect x="990" y="370" width="142" height="102" rx="12" fill="#0f766e" stroke="#d1d5db"/><text x="1008" y="405" class="legend" fill="#111827">10.0</text><text x="1008" y="428" class="small">lat 30.2s</text><text x="1008" y="448" class="small">ops 8.2</text><rect x="1068" y="386" width="52" height="20" rx="10" fill="#dcfce7" stroke="#9ca3af"/><text x="1094" y="400" text-anchor="middle" class="small">stop</text><text x="222" y="539.0" text-anchor="end" class="label">escalation-boundary-decision</text><rect x="240" y="480" width="142" height="102" rx="12" fill="#0f766e" stroke="#d1d5db"/><text x="258" y="515" class="legend" fill="#111827">10.0</text><text x="258" y="538" class="small">lat 7.9s</text><text x="258" y="558" class="small">ops 9.5</text><rect x="318" y="496" width="52" height="20" rx="10" fill="#dcfce7" stroke="#9ca3af"/><text x="344" y="510" text-anchor="middle" class="small">stop</text><rect x="390" y="480" width="142" height="102" rx="12" fill="#0f766e" stroke="#d1d5db"/><text x="408" y="515" class="legend" fill="#111827">10.0</text><text x="408" y="538" class="small">lat 40.3s</text><text x="408" y="558" class="small">ops 8.8</text><rect x="468" y="496" width="52" height="20" rx="10" fill="#dcfce7" stroke="#9ca3af"/><text x="494" y="510" text-anchor="middle" class="small">stop</text><rect x="540" y="480" width="142" height="102" rx="12" fill="#97c1bf" stroke="#d1d5db"/><text x="558" y="515" class="legend" fill="#111827">4.0</text><text x="558" y="538" class="small">lat 33.6s</text><text x="558" y="558" class="small">ops 7.8</text><rect x="618" y="496" width="52" height="20" rx="10" fill="#fef3c7" stroke="#9ca3af"/><text x="644" y="510" text-anchor="middle" class="small">length</text><rect x="690" y="480" width="142" height="102" rx="12" fill="#0f766e" stroke="#d1d5db"/><text x="708" y="515" class="legend" fill="#111827">10.0</text><text x="708" y="538" class="small">lat 43.4s</text><text x="708" y="558" class="small">ops 7.8</text><rect x="768" y="496" width="52" height="20" rx="10" fill="#fef3c7" stroke="#9ca3af"/><text x="794" y="510" text-anchor="middle" class="small">length</text><rect x="840" y="480" width="142" height="102" rx="12" fill="#6aa8a4" stroke="#d1d5db"/><text x="858" y="515" class="legend" fill="#111827">6.0</text><text x="858" y="538" class="small">lat 8.2s</text><text x="858" y="558" class="small">ops 9.0</text><rect x="918" y="496" width="52" height="20" rx="10" fill="#fef3c7" stroke="#9ca3af"/><text x="944" y="510" text-anchor="middle" class="small">incomplete</text><rect x="990" y="480" width="142" height="102" rx="12" fill="#0f766e" stroke="#d1d5db"/><text x="1008" y="515" class="legend" fill="#111827">10.0</text><text x="1008" y="538" class="small">lat 43.1s</text><text x="1008" y="558" class="small">ops 8.2</text><rect x="1068" y="496" width="52" height="20" rx="10" fill="#dcfce7" stroke="#9ca3af"/><text x="1094" y="510" text-anchor="middle" class="small">stop</text><text x="240" y="618" class="small">Darker teal means higher accuracy. Amber badges indicate length/incomplete finishes.</text>
</svg>
